<?xml version="1.0" standalone="no"?>
<!DOCTYPE svg PUBLIC "-//W3C//DTD SVG 20010904//EN"
 "http://www.w3.org/TR/2001/REC-SVG-20010904/DTD/svg10.dtd">
<svg version="1.0" xmlns="http://www.w3.org/2000/svg"
 width="300.000000pt" height="300.000000pt" viewBox="0 0 300.000000 300.000000"
 preserveAspectRatio="xMidYMid meet">
<metadata>
Created by potrace 1.11, written by Peter Selinger 2001-2013
</metadata>
<g transform="translate(0.000000,300.000000) scale(0.100000,-0.100000)"
fill="#000000" stroke="none">
<path d="M0 1500 l0 -1500 1500 0 1500 0 0 306 0 307 -67 -6 c-38 -3 -84 -3
-103 1 l-34 8 -17 104 c-11 68 -23 108 -33 116 -9 6 -16 16 -16 23 0 6 -5 11
-12 11 -6 0 -22 10 -34 21 -13 12 -33 23 -46 24 -13 1 -29 3 -35 4 -10 1 -13
28 -13 100 0 99 -7 161 -19 161 -3 0 -4 -42 -1 -92 3 -51 4 -103 2 -115 -4
-24 -18 -32 -19 -10 -1 6 -6 37 -13 67 -7 30 -12 123 -12 205 0 131 -2 146
-13 120 -7 -16 -11 -46 -9 -65 3 -33 3 -33 -4 -5 -4 17 -11 29 -16 28 -6 -1
-27 -39 -47 -85 -42 -92 -65 -116 -98 -98 -24 13 -28 55 -7 79 7 9 27 41 43
71 16 30 45 83 64 117 29 55 32 64 18 75 -24 21 -69 85 -69 100 0 8 16 29 35
48 l34 33 12 -27 c9 -19 15 -23 21 -14 12 19 10 58 -4 58 -6 0 -1 11 12 25 13
14 26 25 30 25 4 0 8 -25 9 -56 1 -37 -1 -54 -8 -49 -7 4 -11 -4 -11 -19 0
-13 -3 -33 -6 -43 -8 -27 25 19 62 86 34 63 65 75 74 30 l5 -27 45 18 45 18
-2 66 c-1 61 10 86 23 52 5 -14 101 -58 196 -92 l38 -13 0 654 0 655 -1500 0
-1500 0 0 -1500z m1590 1486 c0 -11 -19 -15 -25 -6 -3 5 1 10 9 10 9 0 16 -2
16 -4z m-90 -106 c0 -5 -5 -10 -11 -10 -5 0 -7 5 -4 10 3 6 8 10 11 10 2 0 4
-4 4 -10z m58 -69 c3 -39 -10 -61 -23 -41 -4 6 -1 18 7 27 11 15 11 16 -5 10
-10 -4 -16 -3 -14 1 2 4 7 15 10 25 11 29 23 19 25 -22z m314 7 c-8 -8 -9 -4
-5 13 4 13 8 18 11 10 2 -7 -1 -18 -6 -23z m-202 -42 c0 -14 -35 -28 -44 -18
-9 8 25 42 35 36 5 -3 9 -11 9 -18z m-422 -11 c-3 -3 -9 2 -12 12 -6 14 -5 15
5 6 7 -7 10 -15 7 -18z m119 4 c-4 -15 -2 -19 9 -15 17 7 18 -6 2 -22 -18 -18
-28 -15 -28 8 0 11 -6 20 -12 20 -8 0 -5 7 6 15 26 20 29 19 23 -6z m-27 -49
c0 -16 -4 -30 -8 -30 -5 0 -9 14 -9 30 0 17 4 30 9 30 4 0 8 -13 8 -30z m170
4 c0 -8 -4 -14 -10 -14 -5 0 -10 9 -10 21 0 11 5 17 10 14 6 -3 10 -13 10 -21z
m-40 -45 c0 -9 -14 -13 -37 -10 -7 1 -13 -3 -13 -9 0 -5 -14 -10 -31 -10 -18
0 -28 4 -24 10 4 6 11 7 17 4 7 -4 8 -2 4 5 -5 7 3 22 21 37 l28 24 18 -21 c9
-12 17 -25 17 -30z m-200 19 c0 -17 -3 -19 -9 -9 -5 7 -15 17 -22 22 -10 6 -8
9 9 9 16 0 22 -6 22 -22z m401 1 c13 -20 11 -29 -6 -29 -12 0 -35 28 -35 43 0
11 32 0 41 -14z m123 15 c13 -5 14 -9 5 -20 -17 -21 -38 -17 -36 6 1 21 6 24
31 14z m232 -31 c-1 -1 -12 0 -25 4 -15 4 -19 8 -10 13 10 7 42 -10 35 -17z
m-806 -10 c8 -7 -24 -23 -45 -21 -15 0 -14 2 5 5 l25 5 -30 13 -30 14 35 -6
c19 -3 37 -8 40 -10z m450 -49 c0 -7 -11 -15 -24 -18 -13 -3 -30 -8 -38 -11
-9 -4 -14 6 -16 34 l-2 40 40 -17 c22 -9 40 -22 40 -28z m168 40 c-4 -3 -2
-19 2 -35 7 -22 5 -29 -6 -29 -8 0 -14 8 -15 18 0 10 -3 12 -6 5 -7 -18 -28
-16 -44 4 -12 15 -12 16 4 10 9 -3 17 -3 17 1 0 4 10 12 23 18 27 14 32 16 25
8z m-324 -33 c11 -17 -18 -30 -36 -17 -10 7 -15 16 -11 19 9 10 41 8 47 -2z
m-307 -89 c-16 -20 -61 -11 -64 13 -2 11 0 14 3 8 3 -7 12 -13 21 -13 8 0 13
6 10 13 -2 6 3 17 12 24 13 10 17 8 22 -10 3 -12 1 -28 -4 -35z m43 48 c0 -5
-4 -10 -10 -10 -5 0 -10 5 -10 10 0 6 5 10 10 10 6 0 10 -4 10 -10z m178 -1
c1 -1 6 -2 12 -3 22 -3 30 -24 23 -58 -8 -35 -9 -36 -28 -19 -11 9 -35 34 -54
54 l-34 36 39 -4 c21 -2 40 -5 42 -6z m586 -35 c3 -8 2 -12 -4 -9 -6 3 -10 10
-10 16 0 14 7 11 14 -7z m-744 -70 c-12 -42 -31 -56 -45 -34 -3 6 -16 10 -28
10 -19 0 -18 3 13 32 19 18 41 31 49 30 7 -2 10 1 6 7 -3 6 -3 17 2 24 14 22
16 -23 3 -69z m546 61 c-22 -17 -46 -20 -46 -6 0 8 21 16 55 19 6 1 1 -5 -9
-13z m-433 -30 c41 -37 47 -55 19 -55 -10 0 -23 -5 -30 -12 -17 -17 -35 3 -36
41 -1 17 -4 31 -8 31 -4 0 -5 7 -2 15 9 21 14 19 57 -20z m147 11 c0 -7 -8
-23 -17 -36 l-17 -24 -7 24 c-3 14 -2 30 2 36 11 14 39 14 39 0z m565 -16 c-3
-5 -12 -10 -18 -10 -7 0 -6 4 3 10 19 12 23 12 15 0z m-1025 -55 c0 -7 6 -15
13 -18 9 -3 8 -9 -4 -21 -14 -15 -17 -15 -35 5 -14 16 -15 23 -6 26 6 3 12 11
12 19 0 9 5 12 10 9 6 -3 10 -12 10 -20z m-107 -13 c-3 -12 -9 -19 -14 -16 -5
3 -3 14 3 24 15 24 19 21 11 -8z m347 -3 c0 -5 5 -7 10 -4 14 9 12 -19 -2 -33
-19 -19 -28 -14 -28 18 0 17 5 30 10 30 6 0 10 -5 10 -11z m103 -29 c-20 -23
-33 -26 -33 -6 0 14 14 24 37 25 9 1 7 -6 -4 -19z m-188 0 c9 -14 -20 -17 -44
-4 -25 13 -25 13 7 12 18 -1 35 -4 37 -8z m-191 -35 c3 -8 1 -15 -4 -15 -6 0
-10 7 -10 15 0 8 2 15 4 15 2 0 6 -7 10 -15z m116 5 c0 -5 7 -10 15 -10 25 0
17 -20 -12 -31 -81 -31 -106 -19 -57 26 28 26 54 33 54 15z m-160 -46 c0 -33
-17 -64 -35 -64 -16 0 -9 30 9 42 7 5 7 8 -1 8 -22 0 -15 36 7 37 15 1 20 -4
20 -23z m359 -44 c-6 -17 -9 -42 -6 -55 3 -21 2 -23 -10 -13 -12 10 -53 80
-53 91 0 2 18 4 40 5 l39 3 -10 -31z m-855 5 c-5 -11 -2 -13 12 -8 16 6 16 5
3 -14 -28 -39 -68 -83 -76 -83 -4 0 -25 5 -45 11 -36 9 -38 12 -38 49 0 22 3
41 8 41 35 7 78 6 83 -3 4 -6 12 -4 20 6 18 20 40 21 33 1z m704 -36 c-8 -28
-14 -37 -21 -30 -6 6 -19 11 -29 11 -15 0 -16 3 -7 18 10 16 41 37 60 41 4 0
2 -17 -3 -40z m210 8 c2 -19 -1 -27 -12 -27 -20 0 -29 16 -21 41 9 27 29 19
33 -14z m-549 -11 c-8 -25 -6 -33 7 -41 38 -23 52 -42 58 -75 6 -34 5 -35 -31
-38 -20 -1 -47 5 -61 14 -19 12 -37 14 -85 9 -34 -4 -72 -11 -84 -16 -15 -5
-23 -5 -23 2 0 20 31 69 51 79 16 9 18 14 9 25 -8 10 -9 19 -1 32 9 16 10 15
11 -9 0 -28 12 -34 44 -22 9 3 16 12 16 20 0 8 5 14 10 14 6 0 10 -7 10 -15 0
-8 8 -15 19 -15 13 0 20 9 23 30 2 16 0 31 -6 33 -6 2 1 4 15 4 25 0 26 -1 18
-31z m233 2 c-24 -24 -35 -29 -43 -21 -6 6 -19 9 -27 5 -12 -4 -11 -1 3 15 18
19 41 28 85 32 9 0 1 -12 -18 -31z m182 16 c12 -31 7 -41 -19 -36 -18 3 -25
11 -25 28 0 28 34 34 44 8z m0 -130 c7 -18 -10 -54 -24 -54 -6 0 -10 6 -10 13
0 6 -3 21 -6 32 -4 15 0 21 15 22 10 1 22 -5 25 -13z m136 -6 c0 -27 -10 -42
-27 -45 -14 -3 -17 25 -7 51 9 24 34 19 34 -6z m-328 -20 c25 -22 28 -28 13
-24 -11 2 -31 7 -45 10 -14 3 -30 13 -36 23 -19 31 30 25 68 -9z m113 1 c9
-17 15 -33 13 -35 -7 -6 -47 26 -58 47 -9 16 -7 19 9 19 13 0 27 -12 36 -31z
m170 -44 c0 -11 -83 -16 -90 -5 -3 4 4 15 15 25 11 10 20 28 20 39 0 18 4 16
28 -14 15 -19 27 -39 27 -45z m1275 20 c0 -8 -4 -15 -10 -15 -5 0 -10 7 -10
15 0 8 5 15 10 15 6 0 10 -7 10 -15z m-1631 -65 l0 -35 -24 28 c-14 15 -25 39
-25 53 0 25 0 25 25 7 18 -13 24 -27 24 -53z m-63 3 c-10 -10 -19 5 -10 18 6
11 8 11 12 0 2 -7 1 -15 -2 -18z m224 1 c13 -12 12 -17 -8 -37 l-23 -22 -5 22
c-4 12 -15 23 -27 25 -12 2 -23 11 -25 22 -4 16 0 18 35 12 21 -4 45 -14 53
-22z m870 6 c0 -4 -7 -10 -15 -14 -10 -4 -15 1 -15 14 0 13 5 18 15 14 8 -4
15 -10 15 -14z m28 -29 c11 -7 11 -9 -1 -14 -9 -3 -21 1 -27 9 -10 11 -10 14
1 14 8 0 20 -4 27 -9z m-988 -22 c0 -5 -4 -9 -10 -9 -5 0 -10 7 -10 16 0 8 5
12 10 9 6 -3 10 -10 10 -16z m265 -9 c10 -11 13 -20 7 -20 -7 0 -12 -6 -12
-14 0 -28 -20 -27 -30 0 -19 49 2 70 35 34z m75 0 c0 -13 -5 -18 -15 -14 -12
5 -13 10 -4 20 15 19 19 18 19 -6z m-186 -5 c-4 -8 -16 -15 -27 -15 -20 0 -20
0 -1 15 25 19 35 19 28 0z m-234 -49 c0 -22 -13 -26 -26 -8 -7 9 -13 28 -13
42 l0 25 19 -24 c11 -13 20 -29 20 -35z m1152 43 l21 -11 -23 -18 c-20 -15
-26 -16 -38 -4 -15 16 -10 44 8 44 6 0 21 -5 32 -11z m-1082 -14 c0 -8 -4 -15
-10 -15 -5 0 -10 7 -10 15 0 8 5 15 10 15 6 0 10 -7 10 -15z m40 -3 c0 -24
-26 -59 -36 -49 -4 4 -2 13 4 19 7 7 12 20 12 30 0 10 5 18 10 18 6 0 10 -8
10 -18z m310 -22 c0 -11 -40 -81 -56 -97 -30 -31 -22 75 9 114 10 14 47 0 47
-17z m1200 4 c0 -8 -4 -12 -10 -9 -5 3 -10 13 -10 21 0 8 5 12 10 9 6 -3 10
-13 10 -21z m-1326 -18 c16 -35 22 -86 9 -86 -10 0 -93 82 -93 92 0 4 9 8 19
8 11 0 23 5 26 10 11 18 22 11 39 -24z m893 17 c-4 -3 3 -11 15 -17 47 -24 22
-76 -38 -76 l-35 0 16 30 c9 17 13 35 10 40 -3 5 3 13 12 19 21 12 29 14 20 4z
m-934 -97 c39 -26 34 -38 -15 -34 -34 2 -43 7 -42 21 2 13 -3 16 -18 11 -19
-6 -19 -5 -3 26 16 31 17 31 33 12 9 -10 29 -27 45 -36z m-243 0 c0 -7 -11
-16 -25 -18 -19 -4 -25 -1 -25 13 0 14 7 19 25 19 15 0 25 -6 25 -14z m110
-38 c22 -13 40 -28 40 -34 0 -6 7 -18 17 -25 13 -11 17 -11 20 -1 3 7 21 12
41 12 27 0 33 -3 22 -9 -8 -6 -18 -7 -24 -4 -5 4 -7 -1 -3 -10 4 -11 1 -17 -9
-17 -8 0 -13 -4 -9 -9 3 -5 1 -12 -5 -16 -5 -3 -11 4 -11 17 -1 13 -7 -22 -13
-77 -10 -92 -13 -100 -33 -103 -13 -2 -23 -10 -23 -18 0 -8 10 -24 23 -36 12
-13 22 -25 23 -28 1 -6 11 -34 25 -67 7 -19 5 -23 -12 -23 -11 0 -31 -7 -44
-16 -26 -17 -29 -16 -19 10 3 9 13 16 21 16 21 0 10 24 -13 29 -10 2 -25 12
-33 23 -11 16 -15 17 -22 7 -7 -11 -9 -9 -9 6 0 12 5 26 12 33 6 6 9 14 6 18
-12 12 -38 -55 -40 -102 -1 -45 -27 -118 -29 -84 0 8 -6 -1 -13 -20 -7 -19
-18 -36 -24 -36 -7 -1 -14 -3 -17 -4 -3 -1 -10 -3 -17 -4 -6 0 -13 -7 -16 -15
-3 -10 1 -12 17 -8 25 6 26 -1 5 -28 -9 -13 -12 -30 -8 -50 l6 -30 -26 37
c-14 21 -24 44 -22 50 1 7 1 10 -1 5 -3 -4 -9 -4 -14 -1 -6 3 -5 11 2 20 9 11
8 20 -5 39 -19 29 -31 32 -40 10 -3 -8 -2 -15 3 -15 10 0 34 -90 26 -98 -3 -3
7 -26 22 -51 17 -30 21 -41 10 -32 -10 8 -21 11 -24 7 -4 -4 -3 -10 3 -14 11
-8 44 -58 44 -67 0 -4 -4 -3 -10 0 -5 3 -10 -1 -10 -10 0 -11 -5 -15 -14 -12
-11 5 -11 1 1 -24 8 -16 19 -26 25 -23 6 4 8 2 4 -4 -3 -6 -2 -22 4 -36 9 -24
8 -25 -8 -17 -9 5 -35 51 -56 101 -30 71 -46 95 -68 106 -35 18 -39 16 -31
-14 6 -26 20 -29 26 -4 3 9 5 -3 6 -28 0 -26 6 -51 12 -57 13 -13 3 -36 -12
-28 -5 4 -9 2 -9 -4 0 -6 9 -15 19 -21 30 -15 51 -40 51 -58 0 -13 -2 -13 -15
4 -20 26 -19 15 4 -28 10 -21 21 -34 25 -31 3 3 1 12 -5 20 -15 18 -1 17 17
-2 9 -8 13 -23 9 -34 -4 -15 3 -23 38 -40 24 -12 50 -21 57 -21 10 0 11 -3 3
-11 -7 -7 -19 -9 -27 -6 -9 4 -19 6 -22 6 -4 0 -10 5 -14 11 -4 7 -31 13 -59
14 -41 1 -52 5 -62 23 -6 11 -8 27 -4 34 5 7 4 10 -3 5 -6 -3 -14 3 -17 15 -4
11 -10 18 -13 14 -3 -3 -12 5 -19 17 -13 23 -13 23 -9 -4 5 -30 -8 -38 -18
-12 -3 8 -10 13 -14 10 -5 -3 -6 21 -4 52 4 62 -26 155 -49 150 -7 -2 -27 31
-45 72 -18 41 -44 100 -58 131 -14 32 -26 62 -26 68 0 6 -5 11 -11 11 -6 0 -8
9 -4 21 4 13 3 19 -2 16 -10 -6 -43 86 -43 119 0 11 -4 24 -10 30 -11 11 -1
56 11 48 5 -3 9 -16 9 -29 0 -13 5 -27 10 -30 6 -4 8 -11 5 -16 -4 -5 -1 -17
4 -26 8 -14 11 -15 11 -3 0 12 3 11 11 -3 6 -10 8 -25 5 -33 -3 -9 -1 -12 4
-9 6 3 10 0 10 -9 0 -8 7 -27 15 -43 8 -15 24 -55 37 -88 25 -69 44 -95 35
-50 -7 34 -4 28 39 -70 23 -51 28 -57 35 -40 6 14 7 7 3 -20 -3 -22 -1 -52 4
-65 8 -21 11 -12 17 50 5 60 3 84 -10 118 -11 27 -22 41 -31 38 -8 -3 -15 7
-19 27 -4 18 -10 37 -14 42 -9 13 -28 72 -36 113 -4 17 -10 32 -15 32 -5 0
-11 8 -13 18 -2 9 -3 1 -2 -18 4 -37 -2 -29 -25 33 -5 16 -14 26 -19 23 -5 -3
-21 18 -35 47 -14 28 -23 41 -20 27 5 -20 4 -23 -7 -12 -7 6 -17 12 -21 12 -4
0 -8 -6 -8 -12 0 -7 -8 -22 -17 -33 -9 -11 -14 -14 -11 -5 20 58 20 62 7 55
-8 -5 -11 -5 -7 0 16 17 -12 34 -42 25 -18 -5 -32 -5 -36 1 -3 6 -12 5 -22 -3
-9 -7 -13 -8 -9 -2 3 6 -5 17 -18 24 -13 7 -22 17 -19 22 3 4 1 8 -5 8 -6 0
-15 -8 -20 -18 -7 -14 -20 -18 -48 -16 -50 3 -50 3 -33 14 10 6 11 10 3 10 -7
0 -13 7 -13 15 0 19 60 17 67 -2 9 -24 25 -13 19 12 -6 23 -3 25 25 25 17 0
59 7 92 16 34 8 71 14 83 11 13 -2 25 2 28 9 6 15 32 9 59 -14 9 -8 18 -13 20
-11 2 2 11 17 21 33 16 25 20 26 32 14 17 -17 8 -48 -14 -48 -13 0 -12 -3 3
-20 10 -11 21 -18 25 -15 4 2 5 -7 2 -21 -4 -25 -3 -25 19 -14 13 7 31 19 39
26 19 16 60 14 60 -3 0 -7 7 -13 15 -13 8 0 15 -5 15 -11 0 -5 5 -7 10 -4 6 3
10 -1 10 -10 0 -9 5 -13 10 -10 6 3 10 -1 10 -9 0 -19 5 -20 31 -6 26 14 24
30 -3 30 -17 0 -19 3 -9 9 23 14 45 6 59 -22 16 -33 35 -34 51 -4 9 17 19 23
36 20 21 -5 23 0 34 61 14 77 39 136 58 136 8 0 32 -10 53 -22z m-415 -59 c-4
-6 -13 -8 -20 -5 -19 7 -27 -5 -13 -21 18 -22 -15 -51 -36 -33 -17 13 -22 31
-8 29 19 -3 33 2 27 11 -10 16 4 30 31 30 15 0 23 -4 19 -11z m205 -24 c0 -22
-2 -24 -19 -13 -18 11 -18 13 -3 25 22 16 22 17 22 -12z m-150 -9 c-1 -5 4
-12 10 -16 7 -4 11 -13 9 -19 -3 -8 -12 -6 -27 7 -25 22 -29 45 -6 40 8 -2 14
-7 14 -12z m550 -13 c0 -22 -2 -25 -10 -13 -6 9 -10 10 -10 3 0 -6 -3 -19 -7
-29 -5 -13 -3 -15 8 -9 12 7 12 6 0 -9 -14 -17 -16 -17 -28 1 -12 15 -12 18 2
21 9 2 14 10 11 18 -4 11 17 44 30 44 2 0 4 -12 4 -27z m-1185 -19 c16 -23 6
-73 -17 -85 -15 -8 -19 -8 -14 0 4 6 2 11 -3 11 -6 0 -11 -7 -11 -15 0 -21
-13 -19 -44 10 -30 28 -31 32 -11 72 13 27 19 30 52 26 20 -2 42 -11 48 -19z
m1615 -138 c0 -3 -4 -8 -10 -11 -5 -3 -10 -1 -10 4 0 6 5 11 10 11 6 0 10 -2
10 -4z m0 -44 c0 -13 -12 -22 -22 -16 -10 6 -1 24 13 24 5 0 9 -4 9 -8z m10
-102 c0 -5 -4 -10 -10 -10 -5 0 -10 5 -10 10 0 6 5 10 10 10 6 0 10 -4 10 -10z
m-1234 -194 c14 -44 23 -88 21 -98 -3 -10 -1 -18 5 -18 5 0 7 -4 4 -9 -3 -4 4
-32 15 -62 11 -30 29 -79 40 -109 12 -30 23 -66 26 -79 3 -13 14 -26 24 -28
25 -7 24 -19 -1 -26 -12 -3 -24 1 -30 11 -8 15 -9 15 -10 -3 0 -11 5 -27 10
-35 9 -13 11 -13 20 0 8 13 11 12 24 -5 9 -11 16 -23 16 -27 0 -15 -22 -19
-37 -7 -14 12 -15 10 -9 -21 3 -20 -10 2 -31 52 -35 84 -58 114 -34 46 8 -22
8 -29 1 -22 -11 11 -90 236 -90 256 0 7 7 3 15 -8 10 -12 7 5 -9 51 -13 39
-27 86 -30 105 l-7 35 16 -25 16 -25 -7 30 c-4 17 -8 68 -9 115 l-2 85 14 -50
c8 -27 26 -86 39 -129z m590 107 c-10 -10 -19 5 -10 18 6 11 8 11 12 0 2 -7 1
-15 -2 -18z m102 -21 c9 -16 34 -44 55 -62 37 -32 38 -34 18 -42 -12 -4 -26
-19 -31 -32 -5 -14 -19 -30 -32 -37 -19 -10 -24 -9 -33 6 -5 9 -23 30 -38 46
-22 23 -26 32 -18 46 10 17 10 17 11 1 0 -10 4 -18 9 -18 19 0 22 21 7 45 -15
22 -14 24 4 30 11 4 20 11 20 16 0 13 -34 11 -48 -3 -9 -9 -12 -8 -12 4 0 15
16 22 58 27 7 0 20 -12 30 -27z m-608 -192 c0 -8 -7 -2 -15 14 -8 15 -15 33
-15 40 1 16 29 -36 30 -54z m354 -8 c3 -5 -1 -9 -9 -9 -8 0 -12 4 -9 9 3 4 7
8 9 8 2 0 6 -4 9 -8z m-326 -147 c18 -38 32 -62 32 -52 0 9 5 17 10 17 6 0 10
-6 10 -12 0 -7 3 -24 7 -38 6 -21 4 -23 -9 -13 -8 7 -17 11 -20 8 -6 -6 -24
31 -73 154 -14 36 -25 69 -25 75 0 11 12 -14 68 -139z m420 85 c-4 -63 -12
-80 -28 -64 -12 12 9 124 23 124 5 0 7 -27 5 -60z m-409 -44 c-1 -15 -28 46
-28 64 0 8 6 0 14 -19 8 -18 15 -38 14 -45z m338 32 c-3 -8 -6 -5 -6 6 -1 11
2 17 5 13 3 -3 4 -12 1 -19z m-299 -43 c-3 -3 -9 2 -12 12 -6 14 -5 15 5 6 7
-7 10 -15 7 -18z m362 -52 c0 -22 -17 -49 -25 -41 -8 8 5 58 16 58 5 0 9 -8 9
-17z m1653 -75 c30 -15 34 -23 12 -32 -8 -3 -15 -1 -15 4 0 6 -6 10 -13 10 -7
0 -22 7 -33 15 -19 14 -19 14 2 15 11 0 32 -6 47 -12z m-2219 -14 c3 -8 2 -12
-4 -9 -6 3 -10 10 -10 16 0 14 7 11 14 -7z m236 -46 c0 6 7 12 15 12 10 0 15
-10 15 -34 0 -19 4 -37 9 -40 5 -4 7 13 5 36 l-4 43 14 -30 c16 -35 30 -118
17 -96 -7 11 -11 5 -17 -23 -3 -21 -10 -33 -13 -27 -4 5 -17 9 -29 8 -16 -1
-22 -8 -22 -25 0 -13 4 -20 10 -17 13 8 26 -24 14 -35 -5 -4 -18 -4 -30 0 -19
7 -20 13 -13 62 4 29 8 82 8 118 1 46 4 61 11 50 6 -10 10 -11 10 -2z m-234
-40 c14 -28 15 -31 2 -20 -14 11 -31 52 -22 52 2 0 11 -15 20 -32z m2246 -15
c2 -25 2 -46 0 -48 -11 -11 -40 11 -50 38 -10 27 -10 34 3 43 29 22 43 12 47
-33z m-81 5 c1 -15 4 -33 14 -70 6 -24 4 -28 -12 -28 -11 0 -20 6 -21 13 0 6
-4 31 -8 55 -5 35 -4 42 10 42 9 0 16 -6 17 -12z m-1781 -24 c0 -10 6 -13 19
-9 12 3 21 0 25 -10 4 -10 11 -13 18 -8 28 17 42 11 19 -8 -12 -10 -27 -17
-31 -14 -5 3 -10 -1 -13 -7 -3 -8 -9 -3 -15 12 -8 19 -11 20 -11 7 -1 -26 -21
-10 -21 16 0 18 -2 19 -10 7 -8 -13 -10 -13 -10 1 0 9 3 19 7 22 11 12 23 8
23 -9z m-340 -58 c0 -18 -17 8 -24 34 l-7 25 15 -25 c9 -14 15 -29 16 -34z
m49 -51 c0 -15 -3 -12 -13 11 -25 56 -28 82 -7 44 11 -19 20 -44 20 -55z m25
29 c12 -26 14 -40 7 -47 -6 -6 -11 -8 -11 -4 0 4 0 9 0 12 0 3 -6 21 -14 40
-20 46 -5 45 18 -1z m26 8 c0 -15 -2 -15 -10 -2 -13 20 -13 33 0 25 6 -3 10
-14 10 -23z m-165 7 c11 -17 -1 -21 -15 -4 -8 9 -8 15 -2 15 6 0 14 -5 17 -11z
m2270 1 c3 -5 -1 -10 -10 -10 -9 0 -13 5 -10 10 3 6 8 10 10 10 2 0 7 -4 10
-10z m-2055 -35 c0 -9 -6 -12 -15 -8 -10 3 -15 1 -13 -7 2 -7 -3 -15 -9 -17
-8 -3 -13 4 -13 16 0 12 6 21 15 21 8 0 15 5 15 11 0 5 5 7 10 4 6 -3 10 -13
10 -20z m-165 5 c3 -5 2 -10 -4 -10 -5 0 -13 5 -16 10 -3 6 -2 10 4 10 5 0 13
-4 16 -10z m30 -10 c3 -5 1 -10 -4 -10 -6 0 -11 5 -11 10 0 6 2 10 4 10 3 0 8
-4 11 -10z m215 -10 c10 -20 50 -29 50 -11 0 4 12 6 26 3 35 -7 18 -18 -38
-26 -46 -5 -48 -4 -48 18 0 14 -6 27 -12 29 -10 4 -10 6 -1 6 7 1 17 -8 23
-19z m180 6 c0 -2 -7 -6 -15 -10 -8 -3 -15 -1 -15 4 0 6 7 10 15 10 8 0 15 -2
15 -4z m-503 -250 c4 -3 -10 -56 -16 -56 -21 0 -40 27 -35 48 5 18 11 21 28
16 11 -4 22 -7 23 -8z"/>
<path d="M460 1629 c-6 -11 -10 -25 -7 -32 2 -6 9 3 15 21 12 36 8 42 -8 11z"/>
<path d="M630 1406 c0 -8 5 -18 10 -21 6 -3 10 1 10 9 0 8 -4 18 -10 21 -5 3
-10 -1 -10 -9z"/>
<path d="M990 1397 c0 -8 -7 -17 -15 -21 -8 -3 -15 -12 -15 -21 0 -8 -4 -15
-8 -15 -4 0 -9 -11 -10 -26 -1 -14 2 -23 7 -19 5 3 12 -1 14 -7 4 -10 6 -10 6
-1 1 7 8 10 16 7 15 -6 16 -5 20 76 1 17 -2 33 -6 36 -5 3 -9 -1 -9 -9z"/>
<path d="M680 1370 c0 -8 5 -22 10 -30 9 -13 10 -13 10 0 0 8 -5 22 -10 30 -9
13 -10 13 -10 0z"/>
<path d="M650 1358 c0 -9 5 -20 10 -23 13 -8 13 5 0 25 -8 13 -10 13 -10 -2z"/>
<path d="M1021 1334 c0 -11 3 -14 6 -6 3 7 2 16 -1 19 -3 4 -6 -2 -5 -13z"/>
<path d="M860 1314 c0 -5 7 -19 15 -30 8 -10 15 -14 15 -8 0 5 -7 19 -15 30
-8 10 -15 14 -15 8z"/>
<path d="M742 1290 c0 -14 2 -19 5 -12 2 6 2 18 0 25 -3 6 -5 1 -5 -13z"/>
<path d="M910 1280 c-8 -15 -8 -25 0 -38 8 -11 10 -12 7 -2 -2 8 0 25 4 38 11
27 3 29 -11 2z"/>
<path d="M940 1255 c0 -8 2 -15 4 -15 2 0 6 7 10 15 3 8 1 15 -4 15 -6 0 -10
-7 -10 -15z"/>
<path d="M726 1235 c8 -37 14 -45 14 -19 0 10 -5 26 -10 34 -8 11 -9 7 -4 -15z"/>
<path d="M920 1159 c0 -5 5 -7 10 -4 6 3 10 8 10 11 0 2 -4 4 -10 4 -5 0 -10
-5 -10 -11z"/>
<path d="M730 1063 c0 -5 5 -15 10 -23 8 -12 10 -11 10 8 0 12 -4 22 -10 22
-5 0 -10 -3 -10 -7z"/>
<path d="M861 1045 c-1 -11 2 -30 5 -43 5 -18 9 -20 20 -11 16 13 19 43 4 34
-6 -3 -14 4 -19 17 -9 21 -10 21 -10 3z"/>
<path d="M710 976 c0 -8 4 -17 9 -20 5 -4 7 3 4 14 -6 23 -13 26 -13 6z"/>
<path d="M876 783 c-6 -14 -5 -15 5 -6 7 7 10 15 7 18 -3 3 -9 -2 -12 -12z"/>
<path d="M471 1250 c-1 -14 8 -38 19 -55 25 -38 25 -33 0 30 -14 37 -19 44
-19 25z"/>
<path d="M481 1135 c1 -19 18 -51 18 -35 0 8 -4 22 -9 30 -5 8 -9 11 -9 5z"/>
<path d="M566 930 c3 -14 11 -32 16 -40 6 -10 7 -7 2 10 -3 14 -11 32 -16 40
-6 10 -7 7 -2 -10z"/>
<path d="M540 856 c0 -8 4 -17 9 -20 5 -4 7 3 4 14 -6 23 -13 26 -13 6z"/>
<path d="M590 861 c0 -5 5 -13 10 -16 6 -3 10 -2 10 4 0 5 -4 13 -10 16 -5 3
-10 2 -10 -4z"/>
<path d="M720 656 c0 -9 5 -16 10 -16 6 0 10 4 10 9 0 6 -4 13 -10 16 -5 3
-10 -1 -10 -9z"/>
<path d="M2487 1513 c-4 -3 -7 -11 -7 -17 0 -6 5 -5 12 2 6 6 9 14 7 17 -3 3
-9 2 -12 -2z"/>
<path d="M2530 1405 c0 -8 5 -15 10 -15 6 0 8 -10 4 -24 -6 -26 26 -85 65
-120 11 -11 21 -27 21 -37 0 -20 41 -36 59 -24 14 8 90 -26 118 -54 12 -11 25
-37 29 -57 5 -26 10 -34 21 -29 9 3 22 -3 30 -12 13 -16 14 -15 8 12 l-6 30
20 -25 c11 -14 23 -37 26 -52 8 -35 25 -37 25 -3 0 14 4 25 10 25 5 0 7 -6 4
-13 -2 -7 2 -21 10 -32 14 -18 15 -8 16 107 0 119 -1 128 -21 139 -13 7 -19
17 -16 29 3 12 -2 20 -14 23 -14 4 -19 0 -19 -15 0 -18 -5 -19 -72 -14 -98 8
-127 12 -134 19 -3 3 -11 4 -17 1 -8 -3 -13 13 -14 47 -2 56 -17 84 -32 60
-12 -18 -51 -8 -89 24 -35 29 -42 31 -42 10z"/>
<path d="M2622 1413 c-26 -5 -20 -23 9 -23 10 0 19 7 19 15 0 8 -1 14 -2 14
-2 -1 -13 -4 -26 -6z"/>
<path d="M2725 1000 c-3 -5 -1 -10 4 -10 6 0 11 5 11 10 0 6 -2 10 -4 10 -3 0
-8 -4 -11 -10z"/>
<path d="M2721 963 c-1 -12 4 -25 9 -28 12 -7 12 2 0 30 -8 19 -9 19 -9 -2z"/>
</g>
</svg>
